<mxfile host="app.diagrams.net" modified="2022-01-17T02:46:48.790Z" agent="5.0 (Macintosh; Intel Mac OS X 10_15_7) AppleWebKit/537.36 (KHTML, like Gecko) Chrome/97.0.4692.71 Safari/537.36" etag="Bi1rk9pF6gce-OkMR4WD" version="14.7.6" type="github">
  <diagram id="C5RBs43oDa-KdzZeNtuy" name="Page-1">
    <mxGraphModel dx="1426" dy="771" grid="1" gridSize="10" guides="1" tooltips="1" connect="1" arrows="1" fold="1" page="1" pageScale="1" pageWidth="827" pageHeight="1169" math="0" shadow="0">
      <root>
        <mxCell id="WIyWlLk6GJQsqaUBKTNV-0" />
        <mxCell id="WIyWlLk6GJQsqaUBKTNV-1" parent="WIyWlLk6GJQsqaUBKTNV-0" />
        <mxCell id="PNHNoVW_lka7l3O5j4nS-3" style="edgeStyle=orthogonalEdgeStyle;rounded=0;orthogonalLoop=1;jettySize=auto;html=1;entryX=0.5;entryY=0;entryDx=0;entryDy=0;" edge="1" parent="WIyWlLk6GJQsqaUBKTNV-1" source="WIyWlLk6GJQsqaUBKTNV-3" target="PNHNoVW_lka7l3O5j4nS-2">
          <mxGeometry relative="1" as="geometry" />
        </mxCell>
        <mxCell id="WIyWlLk6GJQsqaUBKTNV-3" value="avformat_alloc_context" style="rounded=1;whiteSpace=wrap;html=1;fontSize=12;glass=0;strokeWidth=1;shadow=0;" parent="WIyWlLk6GJQsqaUBKTNV-1" vertex="1">
          <mxGeometry x="30" y="80" width="210" height="70" as="geometry" />
        </mxCell>
        <mxCell id="PNHNoVW_lka7l3O5j4nS-5" value="" style="edgeStyle=orthogonalEdgeStyle;rounded=0;orthogonalLoop=1;jettySize=auto;html=1;" edge="1" parent="WIyWlLk6GJQsqaUBKTNV-1" source="PNHNoVW_lka7l3O5j4nS-2" target="PNHNoVW_lka7l3O5j4nS-4">
          <mxGeometry relative="1" as="geometry" />
        </mxCell>
        <mxCell id="PNHNoVW_lka7l3O5j4nS-2" value="set&amp;nbsp;interrupt_callback" style="rounded=1;whiteSpace=wrap;html=1;fontSize=12;glass=0;strokeWidth=1;shadow=0;" vertex="1" parent="WIyWlLk6GJQsqaUBKTNV-1">
          <mxGeometry x="30" y="180" width="210" height="70" as="geometry" />
        </mxCell>
        <mxCell id="PNHNoVW_lka7l3O5j4nS-7" value="" style="edgeStyle=orthogonalEdgeStyle;rounded=0;orthogonalLoop=1;jettySize=auto;html=1;" edge="1" parent="WIyWlLk6GJQsqaUBKTNV-1" source="PNHNoVW_lka7l3O5j4nS-4" target="PNHNoVW_lka7l3O5j4nS-6">
          <mxGeometry relative="1" as="geometry" />
        </mxCell>
        <mxCell id="PNHNoVW_lka7l3O5j4nS-4" value="avformat_open_input" style="whiteSpace=wrap;html=1;rounded=1;shadow=0;strokeWidth=1;glass=0;" vertex="1" parent="WIyWlLk6GJQsqaUBKTNV-1">
          <mxGeometry x="30" y="280" width="210" height="60" as="geometry" />
        </mxCell>
        <mxCell id="PNHNoVW_lka7l3O5j4nS-9" style="edgeStyle=orthogonalEdgeStyle;rounded=0;orthogonalLoop=1;jettySize=auto;html=1;entryX=0.5;entryY=0;entryDx=0;entryDy=0;" edge="1" parent="WIyWlLk6GJQsqaUBKTNV-1" source="PNHNoVW_lka7l3O5j4nS-6" target="PNHNoVW_lka7l3O5j4nS-8">
          <mxGeometry relative="1" as="geometry" />
        </mxCell>
        <mxCell id="PNHNoVW_lka7l3O5j4nS-6" value="av_format_inject_global_side_data" style="whiteSpace=wrap;html=1;rounded=1;shadow=0;strokeWidth=1;glass=0;" vertex="1" parent="WIyWlLk6GJQsqaUBKTNV-1">
          <mxGeometry x="30" y="370" width="210" height="60" as="geometry" />
        </mxCell>
        <mxCell id="PNHNoVW_lka7l3O5j4nS-11" style="edgeStyle=orthogonalEdgeStyle;rounded=0;orthogonalLoop=1;jettySize=auto;html=1;entryX=0.5;entryY=0;entryDx=0;entryDy=0;" edge="1" parent="WIyWlLk6GJQsqaUBKTNV-1" source="PNHNoVW_lka7l3O5j4nS-8" target="PNHNoVW_lka7l3O5j4nS-10">
          <mxGeometry relative="1" as="geometry" />
        </mxCell>
        <mxCell id="PNHNoVW_lka7l3O5j4nS-8" value="avformat_find_stream_info" style="whiteSpace=wrap;html=1;rounded=1;shadow=0;strokeWidth=1;glass=0;" vertex="1" parent="WIyWlLk6GJQsqaUBKTNV-1">
          <mxGeometry x="30" y="462" width="210" height="60" as="geometry" />
        </mxCell>
        <mxCell id="PNHNoVW_lka7l3O5j4nS-13" style="edgeStyle=orthogonalEdgeStyle;rounded=0;orthogonalLoop=1;jettySize=auto;html=1;" edge="1" parent="WIyWlLk6GJQsqaUBKTNV-1" source="PNHNoVW_lka7l3O5j4nS-10">
          <mxGeometry relative="1" as="geometry">
            <mxPoint x="135" y="650" as="targetPoint" />
          </mxGeometry>
        </mxCell>
        <mxCell id="PNHNoVW_lka7l3O5j4nS-10" value="check start_time" style="whiteSpace=wrap;html=1;rounded=1;shadow=0;strokeWidth=1;glass=0;" vertex="1" parent="WIyWlLk6GJQsqaUBKTNV-1">
          <mxGeometry x="30" y="558" width="210" height="60" as="geometry" />
        </mxCell>
        <mxCell id="PNHNoVW_lka7l3O5j4nS-15" style="edgeStyle=orthogonalEdgeStyle;rounded=0;orthogonalLoop=1;jettySize=auto;html=1;entryX=0.5;entryY=0;entryDx=0;entryDy=0;" edge="1" parent="WIyWlLk6GJQsqaUBKTNV-1" source="PNHNoVW_lka7l3O5j4nS-12" target="PNHNoVW_lka7l3O5j4nS-14">
          <mxGeometry relative="1" as="geometry" />
        </mxCell>
        <mxCell id="PNHNoVW_lka7l3O5j4nS-12" value="find stream index" style="whiteSpace=wrap;html=1;rounded=1;shadow=0;strokeWidth=1;glass=0;" vertex="1" parent="WIyWlLk6GJQsqaUBKTNV-1">
          <mxGeometry x="30" y="651" width="210" height="60" as="geometry" />
        </mxCell>
        <mxCell id="PNHNoVW_lka7l3O5j4nS-17" style="edgeStyle=orthogonalEdgeStyle;rounded=0;orthogonalLoop=1;jettySize=auto;html=1;entryX=0.5;entryY=0;entryDx=0;entryDy=0;" edge="1" parent="WIyWlLk6GJQsqaUBKTNV-1" source="PNHNoVW_lka7l3O5j4nS-14" target="PNHNoVW_lka7l3O5j4nS-16">
          <mxGeometry relative="1" as="geometry" />
        </mxCell>
        <mxCell id="PNHNoVW_lka7l3O5j4nS-14" value="stream_component_open" style="whiteSpace=wrap;html=1;rounded=1;shadow=0;strokeWidth=1;glass=0;" vertex="1" parent="WIyWlLk6GJQsqaUBKTNV-1">
          <mxGeometry x="30" y="744" width="210" height="60" as="geometry" />
        </mxCell>
        <mxCell id="PNHNoVW_lka7l3O5j4nS-19" style="edgeStyle=orthogonalEdgeStyle;rounded=0;orthogonalLoop=1;jettySize=auto;html=1;" edge="1" parent="WIyWlLk6GJQsqaUBKTNV-1" source="PNHNoVW_lka7l3O5j4nS-16" target="PNHNoVW_lka7l3O5j4nS-18">
          <mxGeometry relative="1" as="geometry" />
        </mxCell>
        <mxCell id="PNHNoVW_lka7l3O5j4nS-16" value="for（;;）" style="whiteSpace=wrap;html=1;rounded=1;shadow=0;strokeWidth=1;glass=0;" vertex="1" parent="WIyWlLk6GJQsqaUBKTNV-1">
          <mxGeometry x="30" y="850" width="210" height="60" as="geometry" />
        </mxCell>
        <mxCell id="PNHNoVW_lka7l3O5j4nS-18" value="check pause" style="whiteSpace=wrap;html=1;rounded=1;shadow=0;strokeWidth=1;glass=0;" vertex="1" parent="WIyWlLk6GJQsqaUBKTNV-1">
          <mxGeometry x="30" y="950" width="210" height="60" as="geometry" />
        </mxCell>
        <mxCell id="PNHNoVW_lka7l3O5j4nS-20" value="check seek" style="whiteSpace=wrap;html=1;rounded=1;shadow=0;strokeWidth=1;glass=0;" vertex="1" parent="WIyWlLk6GJQsqaUBKTNV-1">
          <mxGeometry x="30" y="1045" width="210" height="60" as="geometry" />
        </mxCell>
        <mxCell id="PNHNoVW_lka7l3O5j4nS-21" value="av_read_frame" style="whiteSpace=wrap;html=1;rounded=1;shadow=0;strokeWidth=1;glass=0;" vertex="1" parent="WIyWlLk6GJQsqaUBKTNV-1">
          <mxGeometry x="30" y="1140" width="210" height="60" as="geometry" />
        </mxCell>
        <mxCell id="PNHNoVW_lka7l3O5j4nS-22" value="packet_queue_put" style="whiteSpace=wrap;html=1;rounded=1;shadow=0;strokeWidth=1;glass=0;" vertex="1" parent="WIyWlLk6GJQsqaUBKTNV-1">
          <mxGeometry x="30" y="1240" width="210" height="60" as="geometry" />
        </mxCell>
        <mxCell id="PNHNoVW_lka7l3O5j4nS-30" style="edgeStyle=orthogonalEdgeStyle;rounded=0;orthogonalLoop=1;jettySize=auto;html=1;entryX=0.5;entryY=0;entryDx=0;entryDy=0;" edge="1" parent="WIyWlLk6GJQsqaUBKTNV-1" source="PNHNoVW_lka7l3O5j4nS-23" target="PNHNoVW_lka7l3O5j4nS-26">
          <mxGeometry relative="1" as="geometry" />
        </mxCell>
        <mxCell id="PNHNoVW_lka7l3O5j4nS-23" value="avcodec_alloc_context3" style="whiteSpace=wrap;html=1;rounded=1;shadow=0;strokeWidth=1;glass=0;" vertex="1" parent="WIyWlLk6GJQsqaUBKTNV-1">
          <mxGeometry x="570" y="190" width="210" height="60" as="geometry" />
        </mxCell>
        <mxCell id="PNHNoVW_lka7l3O5j4nS-28" value="" style="edgeStyle=orthogonalEdgeStyle;rounded=0;orthogonalLoop=1;jettySize=auto;html=1;" edge="1" parent="WIyWlLk6GJQsqaUBKTNV-1" source="PNHNoVW_lka7l3O5j4nS-25" target="PNHNoVW_lka7l3O5j4nS-26">
          <mxGeometry relative="1" as="geometry" />
        </mxCell>
        <mxCell id="PNHNoVW_lka7l3O5j4nS-36" style="edgeStyle=orthogonalEdgeStyle;rounded=0;orthogonalLoop=1;jettySize=auto;html=1;entryX=0.5;entryY=0;entryDx=0;entryDy=0;" edge="1" parent="WIyWlLk6GJQsqaUBKTNV-1" source="PNHNoVW_lka7l3O5j4nS-25" target="PNHNoVW_lka7l3O5j4nS-31">
          <mxGeometry relative="1" as="geometry" />
        </mxCell>
        <mxCell id="PNHNoVW_lka7l3O5j4nS-25" value="avcodec_find_decoder" style="whiteSpace=wrap;html=1;rounded=1;shadow=0;strokeWidth=1;glass=0;" vertex="1" parent="WIyWlLk6GJQsqaUBKTNV-1">
          <mxGeometry x="570" y="396" width="210" height="60" as="geometry" />
        </mxCell>
        <mxCell id="PNHNoVW_lka7l3O5j4nS-26" value="avcodec_parameters_to_context" style="whiteSpace=wrap;html=1;rounded=1;shadow=0;strokeWidth=1;glass=0;" vertex="1" parent="WIyWlLk6GJQsqaUBKTNV-1">
          <mxGeometry x="570" y="296" width="210" height="60" as="geometry" />
        </mxCell>
        <mxCell id="PNHNoVW_lka7l3O5j4nS-37" style="edgeStyle=orthogonalEdgeStyle;rounded=0;orthogonalLoop=1;jettySize=auto;html=1;entryX=0.5;entryY=0;entryDx=0;entryDy=0;" edge="1" parent="WIyWlLk6GJQsqaUBKTNV-1" source="PNHNoVW_lka7l3O5j4nS-31" target="PNHNoVW_lka7l3O5j4nS-32">
          <mxGeometry relative="1" as="geometry" />
        </mxCell>
        <mxCell id="PNHNoVW_lka7l3O5j4nS-48" style="edgeStyle=orthogonalEdgeStyle;rounded=0;orthogonalLoop=1;jettySize=auto;html=1;" edge="1" parent="WIyWlLk6GJQsqaUBKTNV-1" source="PNHNoVW_lka7l3O5j4nS-31">
          <mxGeometry relative="1" as="geometry">
            <mxPoint x="675" y="593" as="targetPoint" />
          </mxGeometry>
        </mxCell>
        <mxCell id="PNHNoVW_lka7l3O5j4nS-52" style="edgeStyle=orthogonalEdgeStyle;rounded=0;orthogonalLoop=1;jettySize=auto;html=1;" edge="1" parent="WIyWlLk6GJQsqaUBKTNV-1" source="PNHNoVW_lka7l3O5j4nS-31" target="PNHNoVW_lka7l3O5j4nS-50">
          <mxGeometry relative="1" as="geometry" />
        </mxCell>
        <mxCell id="PNHNoVW_lka7l3O5j4nS-31" value="avcodec_open2," style="whiteSpace=wrap;html=1;rounded=1;shadow=0;strokeWidth=1;glass=0;" vertex="1" parent="WIyWlLk6GJQsqaUBKTNV-1">
          <mxGeometry x="570" y="496" width="210" height="60" as="geometry" />
        </mxCell>
        <mxCell id="PNHNoVW_lka7l3O5j4nS-43" style="edgeStyle=orthogonalEdgeStyle;rounded=0;orthogonalLoop=1;jettySize=auto;html=1;entryX=0.5;entryY=0;entryDx=0;entryDy=0;" edge="1" parent="WIyWlLk6GJQsqaUBKTNV-1" source="PNHNoVW_lka7l3O5j4nS-32" target="PNHNoVW_lka7l3O5j4nS-41">
          <mxGeometry relative="1" as="geometry" />
        </mxCell>
        <mxCell id="PNHNoVW_lka7l3O5j4nS-32" value="check filter" style="whiteSpace=wrap;html=1;rounded=1;shadow=0;strokeWidth=1;glass=0;" vertex="1" parent="WIyWlLk6GJQsqaUBKTNV-1">
          <mxGeometry x="340" y="596" width="210" height="60" as="geometry" />
        </mxCell>
        <mxCell id="PNHNoVW_lka7l3O5j4nS-40" style="edgeStyle=orthogonalEdgeStyle;rounded=0;orthogonalLoop=1;jettySize=auto;html=1;entryX=0.5;entryY=0;entryDx=0;entryDy=0;" edge="1" parent="WIyWlLk6GJQsqaUBKTNV-1" source="PNHNoVW_lka7l3O5j4nS-34" target="PNHNoVW_lka7l3O5j4nS-39">
          <mxGeometry relative="1" as="geometry" />
        </mxCell>
        <mxCell id="PNHNoVW_lka7l3O5j4nS-34" value="decoder_init" style="whiteSpace=wrap;html=1;rounded=1;shadow=0;strokeWidth=1;glass=0;" vertex="1" parent="WIyWlLk6GJQsqaUBKTNV-1">
          <mxGeometry x="340" y="776" width="210" height="60" as="geometry" />
        </mxCell>
        <mxCell id="PNHNoVW_lka7l3O5j4nS-39" value="decoder_start(audio_thread)" style="whiteSpace=wrap;html=1;rounded=1;shadow=0;strokeWidth=1;glass=0;" vertex="1" parent="WIyWlLk6GJQsqaUBKTNV-1">
          <mxGeometry x="340" y="866" width="210" height="60" as="geometry" />
        </mxCell>
        <mxCell id="PNHNoVW_lka7l3O5j4nS-44" style="edgeStyle=orthogonalEdgeStyle;rounded=0;orthogonalLoop=1;jettySize=auto;html=1;entryX=0.5;entryY=0;entryDx=0;entryDy=0;" edge="1" parent="WIyWlLk6GJQsqaUBKTNV-1" source="PNHNoVW_lka7l3O5j4nS-41" target="PNHNoVW_lka7l3O5j4nS-34">
          <mxGeometry relative="1" as="geometry" />
        </mxCell>
        <mxCell id="PNHNoVW_lka7l3O5j4nS-41" value="audio_open" style="whiteSpace=wrap;html=1;rounded=1;shadow=0;strokeWidth=1;glass=0;" vertex="1" parent="WIyWlLk6GJQsqaUBKTNV-1">
          <mxGeometry x="340" y="686" width="210" height="60" as="geometry" />
        </mxCell>
        <mxCell id="PNHNoVW_lka7l3O5j4nS-45" style="edgeStyle=orthogonalEdgeStyle;rounded=0;orthogonalLoop=1;jettySize=auto;html=1;entryX=0.5;entryY=0;entryDx=0;entryDy=0;" edge="1" parent="WIyWlLk6GJQsqaUBKTNV-1" source="PNHNoVW_lka7l3O5j4nS-46" target="PNHNoVW_lka7l3O5j4nS-47">
          <mxGeometry relative="1" as="geometry" />
        </mxCell>
        <mxCell id="PNHNoVW_lka7l3O5j4nS-46" value="decoder_init" style="whiteSpace=wrap;html=1;rounded=1;shadow=0;strokeWidth=1;glass=0;" vertex="1" parent="WIyWlLk6GJQsqaUBKTNV-1">
          <mxGeometry x="570" y="596" width="210" height="60" as="geometry" />
        </mxCell>
        <mxCell id="PNHNoVW_lka7l3O5j4nS-47" value="decoder_start(video_thread)" style="whiteSpace=wrap;html=1;rounded=1;shadow=0;strokeWidth=1;glass=0;" vertex="1" parent="WIyWlLk6GJQsqaUBKTNV-1">
          <mxGeometry x="570" y="686" width="210" height="60" as="geometry" />
        </mxCell>
        <mxCell id="PNHNoVW_lka7l3O5j4nS-49" style="edgeStyle=orthogonalEdgeStyle;rounded=0;orthogonalLoop=1;jettySize=auto;html=1;entryX=0.5;entryY=0;entryDx=0;entryDy=0;" edge="1" parent="WIyWlLk6GJQsqaUBKTNV-1" source="PNHNoVW_lka7l3O5j4nS-50" target="PNHNoVW_lka7l3O5j4nS-51">
          <mxGeometry relative="1" as="geometry" />
        </mxCell>
        <mxCell id="PNHNoVW_lka7l3O5j4nS-50" value="decoder_init" style="whiteSpace=wrap;html=1;rounded=1;shadow=0;strokeWidth=1;glass=0;" vertex="1" parent="WIyWlLk6GJQsqaUBKTNV-1">
          <mxGeometry x="800" y="596" width="210" height="60" as="geometry" />
        </mxCell>
        <mxCell id="PNHNoVW_lka7l3O5j4nS-51" value="decoder_start(subtitle_thread)" style="whiteSpace=wrap;html=1;rounded=1;shadow=0;strokeWidth=1;glass=0;" vertex="1" parent="WIyWlLk6GJQsqaUBKTNV-1">
          <mxGeometry x="800" y="686" width="210" height="60" as="geometry" />
        </mxCell>
        <mxCell id="PNHNoVW_lka7l3O5j4nS-54" style="edgeStyle=orthogonalEdgeStyle;rounded=0;orthogonalLoop=1;jettySize=auto;html=1;entryX=0.5;entryY=0;entryDx=0;entryDy=0;" edge="1" parent="WIyWlLk6GJQsqaUBKTNV-1" source="PNHNoVW_lka7l3O5j4nS-53" target="PNHNoVW_lka7l3O5j4nS-23">
          <mxGeometry relative="1" as="geometry" />
        </mxCell>
        <mxCell id="PNHNoVW_lka7l3O5j4nS-53" value="stream_component_open" style="whiteSpace=wrap;html=1;rounded=1;shadow=0;strokeWidth=1;glass=0;" vertex="1" parent="WIyWlLk6GJQsqaUBKTNV-1">
          <mxGeometry x="570" y="85" width="210" height="60" as="geometry" />
        </mxCell>
      </root>
    </mxGraphModel>
  </diagram>
</mxfile>
